#tb 0: 1/25
0,          0,          0,        1,   301316, bfe075b7078cfe1359a8552fbe923767
0,          1,          1,        1,   301328, 783be9f8f3d65b1866c7e9eb36813af2
0,          2,          2,        1,   301104, e804e9bfd29ccfed1e909ff493178e29
0,          3,          3,        1,   301164, 1c6668dc6eddeed62c0627f5d8b74c74
0,          4,          4,        1,   301172, e5a2419ce223319bacd25ab42563b3d0
0,          5,          5,        1,   301196, 1cd2aebeef673cde021cc32f19da61ae
0,          6,          6,        1,   301204, 92460dcf4b204b7f042fb5548926142d
0,          7,          7,        1,   301304, 9e02e73af250894d0a70b8302e2a349b
0,          8,          8,        1,   301340, b1099bab3781e8934da3f8824f3eabf3
0,          9,          9,        1,   301304, 23703b6f5faef024db78c204f4f016df
0,         10,         10,        1,   301204, 3dfedda7e6ac5e1df7c7db2538bb5667
0,         11,         11,        1,   301172, 1929487a395f4458be2d3d559582c7ff
0,         12,         12,        1,   301308, 2cbd939e8ec8c2a7c3b999f02dca1f99
0,         13,         13,        1,   301224, c839438bbf5ecd0e77860ab5ef01c19a
0,         14,         14,        1,   301128, e8e24e4c453189628f3457fc56b45274
0,         15,         15,        1,   301140, 005fa92d2e911c815c94550b5697ab40
0,         16,         16,        1,   301280, ad26c44eedcef529b637380bba92d004
0,         17,         17,        1,   301336, f67da01ad2209d1a245a9a1f80f4781a
0,         18,         18,        1,   301452, b96a1ee83eb9b61a63292641c88ac62a
0,         19,         19,        1,   301488, 300324211d8e4e4327aa4668da1a2511
0,         20,         20,        1,   301440, 94fb5eb08f6b23394a9e6de57fe439fc
0,         21,         21,        1,   301440, def06258ffdf0311114cab91538b8cd5
0,         22,         22,        1,   301376, 6e242d13067c772ef8a05a4a7be51c9e
0,         23,         23,        1,   301320, a6352be0046375d3df0f793e80a69d94
0,         24,         24,        1,   301392, 008d9fb5ab787eadc81afa0f5c088052
0,         25,         25,        1,   301404, 43a23b69f94286eaba5f6fe904014b13
0,         26,         26,        1,   301348, 354a30651494f5ada404bbe2cde1dc65
0,         27,         27,        1,   301492, 5c827680e386ebe591110894800d9d50
0,         28,         28,        1,   301412, 6ae936785862350f686767acaa647a1a
0,         29,         29,        1,   301484, 615e46fa8bdda14f60b5dfde990f051b
0,         30,         30,        1,   301484, c3a99f4503551c24a83a60bc2da3b063
0,         31,         31,        1,   301420, 06bee7377677bbd779245fd016270180
0,         32,         32,        1,   301380, 1ec529e39255d3a96dbab53b47a8e5d2
0,         33,         33,        1,   301360, 935978f44e381ed380f2c738c5908183
0,         34,         34,        1,   301260, 27fb378f3767bacbc069a8a77dd8f52d
0,         35,         35,        1,   301416, 11659bb1a5101f9b8958cc598ec554ea
0,         36,         36,        1,   301492, be3afc7b7e2e1374d60fbed3355d6af1
0,         37,         37,        1,   301488, bff39eab8f0cc5ee1060525cfe63bfbd
0,         38,         38,        1,   301556, 314b34091a3c3b175a438330a8204bde
0,         39,         39,        1,   301556, 1b19b73d8e442351f733a1a3cbce7f16
0,         40,         40,        1,   301568, f222cfb256bed61a599f32d6c9b89d61
0,         41,         41,        1,   301528, 880301f5786ce0e9f2fe5dcabe7c110d
0,         42,         42,        1,   301604, 46c1c6a3309dce483e394673528cdd93
0,         43,         43,        1,   301568, 563e160316ed6a118f7827acf705c423
0,         44,         44,        1,   301552, 2f4cd23161c635a621f7f52de6e137e0
0,         45,         45,        1,   301604, cbc5e8448db03a40ff6dc9bc97eef8b7
0,         46,         46,        1,   301692, eadbc626d1f5e24eff337cc3991816dd
0,         47,         47,        1,   301700, 6e5ca4187a062587ec16615e26241269
0,         48,         48,        1,   301720, 3bde6793c623d1c59893ae4a7f451ea6
0,         49,         49,        1,   301704, f6a71c49300df97817dbbf10b2d5dbbf
